<svg width="48" height="48" viewBox="0 0 48 48" fill="none" xmlns="http://www.w3.org/2000/svg">
<rect width="48" height="48" rx="4" fill="#673EE6"/>
<path d="M24 10.6667C22.249 10.6667 20.5152 11.0115 18.8976 11.6816C17.2799 12.3517 15.81 13.3338 14.5719 14.5719C12.0714 17.0724 10.6667 20.4638 10.6667 24C10.6667 29.8933 14.4933 34.8933 19.7867 36.6667C20.4533 36.7733 20.6667 36.36 20.6667 36V33.7467C16.9733 34.5467 16.1867 31.96 16.1867 31.96C15.5733 30.4133 14.7067 30 14.7067 30C13.4933 29.1733 14.8 29.2 14.8 29.2C16.1333 29.2933 16.84 30.5733 16.84 30.5733C18 32.6 19.96 32 20.72 31.68C20.84 30.8133 21.1867 30.2267 21.56 29.8933C18.6 29.56 15.4933 28.4133 15.4933 23.3333C15.4933 21.8533 16 20.6667 16.8667 19.72C16.7333 19.3867 16.2667 18 17 16.2C17 16.2 18.12 15.84 20.6667 17.56C21.72 17.2667 22.8667 17.12 24 17.12C25.1333 17.12 26.28 17.2667 27.3333 17.56C29.88 15.84 31 16.2 31 16.2C31.7333 18 31.2667 19.3867 31.1333 19.72C32 20.6667 32.5067 21.8533 32.5067 23.3333C32.5067 28.4267 29.3867 29.5467 26.4133 29.88C26.8933 30.2933 27.3333 31.1067 27.3333 32.3467V36C27.3333 36.36 27.5467 36.7867 28.2267 36.6667C33.52 34.88 37.3333 29.8933 37.3333 24C37.3333 22.249 36.9885 20.5152 36.3184 18.8976C35.6483 17.2799 34.6662 15.81 33.4281 14.5719C32.19 13.3338 30.7201 12.3517 29.1025 11.6816C27.4848 11.0115 25.751 10.6667 24 10.6667V10.6667Z" fill="white"/>
</svg>
